<svg fill="none" height="180" viewBox="0 0 180 180" width="180" xmlns="http://www.w3.org/2000/svg"><g fill="#121212"><circle cx="135" cy="54" r="25.2"/><circle cx="61.2" cy="118.8" r="10.8"/><path clip-rule="evenodd" d="m90 180c49.706 0 90-40.294 90-90-98.0707 15.965-88.0523-24.4213-80.1775-56.1659 4.5555-18.3628 8.3935-33.8341-9.8225-33.8341-49.7056 0-90 40.2944-90 90 0 49.706 40.2944 90 90 90zm-28.8-32.4c15.9058 0 28.8-12.894 28.8-28.8s-12.8942-28.8-28.8-28.8-28.8 12.894-28.8 28.8 12.8942 28.8 28.8 28.8z" fill-rule="evenodd"/></g></svg>