<svg width="180" height="180" viewBox="0 0 180 180" fill="none" xmlns="http://www.w3.org/2000/svg">
<circle cx="135" cy="54" r="25.2" fill="#121212"/>
<circle cx="61.2" cy="118.8" r="10.8" fill="#121212"/>
<path fill-rule="evenodd" clip-rule="evenodd" d="M90 180C139.706 180 180 139.706 180 90C81.9293 105.965 91.9477 65.5787 99.8225 33.8341C104.378 15.4713 108.216 0 90 0C40.2944 0 0 40.2944 0 90C0 139.706 40.2944 180 90 180ZM61.2 147.6C77.1058 147.6 90 134.706 90 118.8C90 102.894 77.1058 90 61.2 90C45.2942 90 32.4 102.894 32.4 118.8C32.4 134.706 45.2942 147.6 61.2 147.6Z" fill="#121212"/>
</svg>
