<svg fill="none" height="133" viewBox="0 0 507 133" width="507" xmlns="http://www.w3.org/2000/svg"><g fill="#121212"><path d="m180.224 96c-6.981 0-13.112-1.232-18.392-3.696-5.28-2.5227-9.387-6.1013-12.32-10.736-2.875-4.6347-4.312-10.0907-4.312-16.368s1.437-11.8507 4.312-16.72c2.933-4.8693 6.893-8.624 11.88-11.264 5.045-2.6987 10.677-4.048 16.896-4.048 6.16 0 11.733 1.3493 16.72 4.048 5.045 2.64 9.005 6.3947 11.88 11.264s4.312 10.4427 4.312 16.72c0 3.52-.851 7.0107-2.552 10.472-1.643 3.4027-3.696 6.1307-6.16 8.184h10.296v12.144zm-1.936-13.288c3.109 0 5.955-.704 8.536-2.112s4.635-3.432 6.16-6.072 2.288-5.72 2.288-9.24-.763-6.5707-2.288-9.152c-1.467-2.64-3.491-4.664-6.072-6.072-2.581-1.4667-5.456-2.2-8.624-2.2-3.227 0-6.131.7333-8.712 2.2-2.581 1.408-4.635 3.432-6.16 6.072-1.467 2.5813-2.2 5.632-2.2 9.152s.733 6.6 2.2 9.24c1.525 2.64 3.579 4.664 6.16 6.072 2.64 1.408 5.544 2.112 8.712 2.112zm56.297 14.608c-5.808 0-10.179-1.6133-13.112-4.84-2.875-3.2267-4.312-7.48-4.312-12.76v-25.96h15.488v24.2c0 4.8693 2.2 7.304 6.6 7.304 1.994 0 3.813-.4693 5.456-1.408 1.642-.9387 2.992-2.3173 4.048-4.136v-25.96h15.488v42.24h-14.96v-4.576c-1.819 1.936-4.019 3.4027-6.6 4.4-2.582.9973-5.28 1.496-8.096 1.496zm62.402 0c-8.272 0-14.784-1.936-19.536-5.808-4.693-3.872-7.04-9.3573-7.04-16.456 0-6.9813 2.083-12.496 6.248-16.544 4.224-4.048 10.296-6.072 18.216-6.072 5.045 0 9.357.968 12.936 2.904 3.637 1.8773 6.365 4.488 8.184 7.832 1.877 3.2853 2.816 7.0107 2.816 11.176v5.72h-33.704c.587 2.3467 2.053 4.048 4.4 5.104s5.544 1.584 9.592 1.584c2.757 0 5.573-.2347 8.448-.704 2.933-.4693 5.456-1.1147 7.568-1.936v10.208c-2.171.88-4.899 1.584-8.184 2.112-3.227.5867-6.541.88-9.944.88zm7.216-26.928c-.235-2.288-1.173-4.0773-2.816-5.368s-3.901-1.936-6.776-1.936c-2.816 0-5.045.6747-6.688 2.024-1.643 1.2907-2.581 3.0507-2.816 5.28zm20.734-16.632h14.96v5.28c1.642-1.8773 3.96-3.3147 6.952-4.312 2.992-1.056 6.306-1.584 9.944-1.584v11.88c-3.872 0-7.304.5573-10.296 1.672-2.934 1.1147-4.958 2.7867-6.072 5.016v24.288h-15.488zm48 59.664c-1.877 0-3.843-.147-5.896-.44-2.053-.235-3.579-.587-4.576-1.056v-11.528c1.701.704 3.637 1.056 5.808 1.056 1.936 0 3.432-.44 4.488-1.32 1.115-.8213 1.995-2.1413 2.64-3.96l1.056-2.816-18.304-39.6h15.488l11 27.456 10.384-27.456h15.488l-17.424 44.176c-2.053 5.28-4.693 9.181-7.92 11.704-3.168 2.523-7.245 3.784-12.232 3.784zm45.76-17.424c-1.525 0-2.845-.528-3.96-1.584-1.056-1.056-1.584-2.3467-1.584-3.872 0-1.584.528-2.9333 1.584-4.048 1.115-1.1147 2.435-1.672 3.96-1.672 1.584 0 2.904.5573 3.96 1.672 1.115 1.1147 1.672 2.464 1.672 4.048 0 1.5253-.557 2.816-1.672 3.872-1.056 1.056-2.376 1.584-3.96 1.584zm11.771-42.24h14.96v5.28c1.642-1.8773 3.96-3.3147 6.952-4.312 2.992-1.056 6.306-1.584 9.944-1.584v11.88c-3.872 0-7.304.5573-10.296 1.672-2.934 1.1147-4.958 2.7867-6.072 5.016v24.288h-15.488zm53.192 43.56c-3.402 0-6.952-.352-10.648-1.056-3.696-.6453-6.629-1.584-8.8-2.816v-11.352c2.406 1.408 5.28 2.5813 8.624 3.52 3.403.88 6.512 1.32 9.328 1.32 2.054 0 3.55-.1467 4.488-.44.939-.2933 1.408-.88 1.408-1.76 0-.704-.322-1.2613-.968-1.672-.586-.4693-1.701-.9387-3.344-1.408-1.584-.528-3.432-1.0853-5.544-1.672-3.578-1.056-6.394-2.1413-8.448-3.256-2.053-1.1147-3.578-2.5227-4.576-4.224-.997-1.7013-1.496-3.8427-1.496-6.424 0-4.576 1.79-7.9787 5.368-10.208 3.638-2.288 8.595-3.432 14.872-3.432 3.051 0 6.248.3227 9.592.968 3.403.6453 5.955 1.496 7.656 2.552v11.176c-1.76-1.1733-4.106-2.1413-7.04-2.904-2.874-.7627-5.573-1.144-8.096-1.144-1.994 0-3.549.2053-4.664.616-1.114.352-1.672.9973-1.672 1.936 0 .88.558 1.5547 1.672 2.024 1.115.4693 3.11 1.056 5.984 1.76 1.878.4693 2.67.6747 2.376.616 3.755.9973 6.659 2.112 8.712 3.344 2.054 1.232 3.491 2.6987 4.312 4.4.88 1.6427 1.32 3.7547 1.32 6.336 0 4.048-1.76 7.2747-5.28 9.68-3.461 2.3467-8.506 3.52-15.136 3.52z"/><circle cx="75" cy="52" r="14"/><circle cx="34" cy="88" r="6"/><path clip-rule="evenodd" d="m50 122c27.6142 0 50-22.3858 50-50-54.4837 8.8694-48.9179-13.5674-44.5431-31.2033 2.5307-10.2015 4.6629-18.7967-5.4569-18.7967-27.6142 0-50 22.3858-50 50s22.3858 50 50 50zm-16-18c8.8365 0 16-7.1635 16-16s-7.1635-16-16-16-16 7.1635-16 16 7.1635 16 16 16z" fill-rule="evenodd"/></g></svg>